# xmcd
#
# Track frame offsets: 
#        150
#        14094
#        30219
#        42196
#        59093
#        73340
#        87306
#        100108
#        115998
#        131575
#        146818
#        151322
#        168293
#        183651
#        196622
#        213945
#        229572
#        243694
#        258672
#        275525
#        290510
#        305827
#        321552
#
# Disc length: 4389 seconds
#
# Revision: 2
# Processed by: cddbd v1.5.2PL0 Copyright (c) Steve Scherf et al.
# Submitted via: ExactAudioCopy v1.0b3
#
DISCID=61112317
DTITLE=George R. R. Martin - A Storm of Swords - Disc 31
DYEAR=2004
DGENRE=Audio Book
TTITLE0=A Storm of Swords 31-01
TTITLE1=A Storm of Swords 31-02
TTITLE2=A Storm of Swords 31-03
TTITLE3=A Storm of Swords 31-04
TTITLE4=A Storm of Swords 31-05
TTITLE5=A Storm of Swords 31-06
TTITLE6=A Storm of Swords 31-07
TTITLE7=A Storm of Swords 31-08
TTITLE8=A Storm of Swords 31-09
TTITLE9=A Storm of Swords 31-10
TTITLE10=A Storm of Swords 31-11
TTITLE11=A Storm of Swords 31-12
TTITLE12=A Storm of Swords 31-13
TTITLE13=A Storm of Swords 31-14
TTITLE14=A Storm of Swords 31-15
TTITLE15=A Storm of Swords 31-16
TTITLE16=A Storm of Swords 31-17
TTITLE17=A Storm of Swords 31-18
TTITLE18=A Storm of Swords 31-19
TTITLE19=A Storm of Swords 31-20
TTITLE20=A Storm of Swords 31-21
TTITLE21=A Storm of Swords 31-22
TTITLE22=A Storm of Swords 31-23
EXTD=
EXTT0=
EXTT1=
EXTT2=
EXTT3=
EXTT4=
EXTT5=
EXTT6=
EXTT7=
EXTT8=
EXTT9=
EXTT10=
EXTT11=
EXTT12=
EXTT13=
EXTT14=
EXTT15=
EXTT16=
EXTT17=
EXTT18=
EXTT19=
EXTT20=
EXTT21=
EXTT22=
PLAYORDER=
